<svg xmlns="http://www.w3.org/2000/svg" width="491.398" height="486.542" viewBox="0 0 491.398 486.542">
  <g id="homepage" transform="translate(0 -2.428)">
    <g id="Icons_19_">
      <path id="Path_1" data-name="Path 1" d="M481.765,220.422,276.474,15.123a43.633,43.633,0,0,0-61.559.023L9.626,220.422A32.87,32.87,0,0,0,56.113,266.9l27.828-27.832V453.945a35.026,35.026,0,0,0,35.027,35.024h74.826v-97.62a13.741,13.741,0,0,1,13.743-13.741h76.352a13.742,13.742,0,0,1,13.739,13.741V488.97h74.813a35.025,35.025,0,0,0,35.027-35.024V239.091l27.812,27.815a32.87,32.87,0,0,0,46.485-46.484Z" fill="#309456"/>
    </g>
  </g>
</svg>
